<?xml version="1.0" standalone="no"?>
<!DOCTYPE svg PUBLIC "-//W3C//DTD SVG 20010904//EN"
 "http://www.w3.org/TR/2001/REC-SVG-20010904/DTD/svg10.dtd">
<svg version="1.0" xmlns="http://www.w3.org/2000/svg"
 width="1024.000000pt" height="1024.000000pt" viewBox="0 0 1024.000000 1024.000000"
 preserveAspectRatio="xMidYMid meet">

<g transform="translate(0.000000,1024.000000) scale(0.100000,-0.100000)"
fill="#000000" stroke="none">
<path d="M4988 8975 c-6 -6 -164 -14 -328 -16 -51 -1 -59 -3 -35 -9 l30 -8
-30 -1 c-16 0 -64 -8 -106 -16 -41 -7 -86 -12 -100 -9 -17 4 -20 3 -11 -4 16
-11 -73 -26 -91 -15 -5 3 -7 2 -4 -4 4 -6 -18 -15 -51 -22 -83 -18 -204 -51
-223 -61 -9 -5 -26 -6 -37 -3 -11 2 -23 0 -26 -5 -3 -6 -16 -8 -29 -5 -16 3
-18 2 -9 -5 11 -7 8 -11 -13 -16 -14 -4 -31 -4 -37 0 -7 4 -8 3 -4 -4 4 -7 2
-12 -4 -12 -10 0 -192 -69 -270 -103 -14 -5 -31 -9 -37 -8 -7 1 -13 -3 -13 -9
0 -7 -9 -9 -22 -5 -16 4 -19 3 -10 -3 11 -7 10 -10 -3 -16 -9 -3 -22 -3 -28 1
-7 3 -9 3 -5 -2 10 -10 -111 -67 -124 -58 -6 3 -8 2 -5 -4 6 -10 -91 -70 -105
-65 -5 1 -17 -7 -28 -18 -12 -12 -25 -18 -30 -15 -6 4 -10 2 -10 -3 0 -11
-139 -98 -152 -94 -5 1 -7 -2 -4 -7 6 -9 -22 -26 -36 -23 -5 1 -8 -2 -8 -8 0
-5 -7 -6 -17 -3 -10 4 -14 2 -10 -4 3 -5 -33 -38 -81 -73 -48 -36 -90 -69 -94
-75 -4 -5 -8 -7 -8 -2 0 4 -9 -2 -20 -13 -12 -12 -26 -18 -33 -14 -7 4 -9 4
-5 -1 7 -7 -19 -40 -31 -40 -3 0 -18 -14 -33 -31 -15 -16 -43 -39 -62 -49 -20
-11 -36 -23 -36 -28 0 -11 -151 -157 -163 -157 -4 0 -6 -4 -3 -9 4 -5 3 -11
-1 -13 -5 -1 -34 -31 -65 -64 -31 -34 -60 -59 -63 -56 -3 3 -5 -2 -5 -11 0 -9
-7 -17 -15 -17 -8 0 -14 -4 -13 -9 4 -13 -99 -131 -107 -123 -3 4 -5 3 -4 -3
5 -17 -21 -56 -33 -49 -7 4 -8 3 -4 -4 4 -7 2 -12 -3 -12 -6 0 -10 -3 -9 -7 4
-14 -59 -93 -67 -85 -5 4 -5 2 -2 -4 6 -11 -32 -71 -54 -85 -6 -3 -11 -10 -12
-15 -1 -5 -5 -8 -9 -7 -5 2 -8 -6 -8 -16 0 -16 -92 -174 -110 -191 -4 -3 -12
-20 -19 -37 -7 -18 -17 -31 -20 -28 -4 2 -8 -1 -8 -8 0 -24 -150 -317 -158
-310 -4 5 -6 1 -2 -9 3 -9 3 -19 -1 -22 -3 -4 -7 -12 -8 -19 -7 -39 -82 -216
-89 -209 -5 4 -5 2 -2 -4 7 -13 -23 -125 -32 -120 -3 2 -7 -12 -8 -31 -1 -19
-9 -46 -18 -60 -9 -13 -14 -31 -11 -39 3 -8 1 -22 -4 -32 -24 -44 -79 -321
-101 -514 -7 -59 -16 -105 -19 -103 -3 2 -5 -20 -5 -48 0 -29 -2 -101 -5 -162
l-4 -110 -6 90 c-6 80 -6 73 -7 -60 0 -87 3 -137 7 -120 5 19 8 -14 9 -91 2
-241 48 -579 112 -819 12 -44 22 -89 24 -100 1 -11 6 -28 10 -37 4 -9 3 -22
-1 -29 -4 -7 -3 -9 3 -6 13 8 27 -39 17 -56 -4 -7 -4 -9 1 -5 5 5 21 -29 37
-75 16 -45 36 -102 45 -127 8 -24 26 -68 39 -96 13 -29 22 -59 21 -66 -2 -7
-2 -10 0 -6 5 8 156 -292 156 -309 0 -7 2 -11 5 -8 3 2 34 -46 71 -108 36 -61
69 -114 73 -115 4 -2 8 -8 8 -13 0 -19 231 -340 304 -423 14 -16 23 -33 19
-39 -3 -5 -2 -7 4 -4 9 6 148 -139 148 -155 0 -4 5 -8 10 -9 6 0 51 -40 100
-87 50 -48 119 -112 155 -143 78 -68 315 -249 325 -249 4 0 24 -13 44 -28 36
-28 198 -132 206 -132 2 0 41 -21 87 -48 129 -74 310 -160 468 -222 591 -235
1248 -305 1950 -210 132 18 395 81 520 125 41 15 89 30 105 34 107 28 467 194
613 283 34 21 64 38 67 38 5 0 238 155 262 174 10 8 41 31 68 52 264 195 569
504 780 789 180 243 356 546 437 750 18 45 34 83 59 140 35 79 106 291 139
418 6 20 14 54 20 75 79 297 113 579 114 957 1 345 -19 543 -89 870 -38 180
-123 461 -175 580 -10 22 -23 56 -30 75 -23 63 -146 313 -197 400 -201 345
-353 544 -650 850 -57 58 -103 109 -103 114 0 5 -3 6 -6 3 -4 -4 -37 20 -73
52 -141 124 -369 288 -514 370 -35 20 -55 37 -50 44 3 7 3 9 -2 5 -4 -4 -14
-3 -22 3 -7 6 -13 8 -13 4 0 -4 -6 -2 -13 4 -8 6 -70 40 -140 75 -69 35 -122
68 -119 72 4 4 1 4 -5 0 -7 -4 -42 7 -79 24 -36 16 -70 30 -75 30 -5 0 -9 4
-9 9 0 5 -16 12 -35 15 -20 4 -33 11 -30 16 3 6 0 8 -7 5 -18 -7 -170 49 -161
59 5 5 -2 5 -14 2 -12 -4 -24 -2 -28 4 -4 6 -13 9 -21 6 -8 -3 -22 -1 -32 4
-23 12 -285 81 -334 88 -28 3 -36 8 -26 14 9 6 4 8 -17 7 -62 -4 -96 1 -89 13
4 6 3 8 -4 4 -6 -3 -43 -3 -84 1 -68 7 -70 8 -33 14 34 6 29 7 -30 8 -38 1
-101 3 -140 6 -159 10 -480 17 -487 10z"/>
<path d="M1441 6224 c0 -11 3 -14 6 -6 3 7 2 16 -1 19 -3 4 -6 -2 -5 -13z"/>
<path d="M1282 5020 c0 -19 2 -27 5 -17 2 9 2 25 0 35 -3 9 -5 1 -5 -18z"/>
</g>
</svg>
